<?xml version="1.0" encoding="UTF-8"?>
<!DOCTYPE svg PUBLIC "-//W3C//DTD SVG 1.1//EN"
    "http://www.w3.org/Graphics/SVG/1.1/DTD/svg11.dtd" >
<svg contentScriptType="text/ecmascript" width="171.0"
     xmlns:xlink="http://www.w3.org/1999/xlink" zoomAndPan="magnify"
     contentStyleType="text/css"
     viewBox="-68.000000 -100.000000 171.000000 123.000000" height="123.0"
     preserveAspectRatio="xMidYMid meet" xmlns="http://www.w3.org/2000/svg"
     version="1.1">
    <g id="edges">
        <path stroke-linecap="round" fill="none" class="id_jqt id_xhk"
              d="M NaN,NaN A 4.665677,4.665677 0,0 1,NaN,NaN" stroke="#000000"
              stroke-width="1.0" stroke-opacity="1.0"/>
        <path stroke-linecap="round" fill="none" class="id_jqt id_nvd"
              d="M -50.284245,-1.821213 A 129.186447,129.186447 0,0 1,82.160728,-42.568356"
              stroke="#000000" stroke-width="1.0" stroke-opacity="1.0"/>
        <path stroke-linecap="round" fill="none" class="id_rhn id_bvb"
              d="M NaN,NaN A 1.508312,1.508312 0,0 1,NaN,NaN" stroke="#000000"
              stroke-width="1.0" stroke-opacity="1.0"/>
        <path stroke-linecap="round" fill="none" class="id_rhn id_hfx"
              d="M NaN,NaN A 0.271840,0.271840 0,0 1,NaN,NaN" stroke="#000000"
              stroke-width="1.0" stroke-opacity="1.0"/>
        <path stroke-linecap="round" fill="none" class="id_xhk id_hfx"
              d="M NaN,NaN A 4.869995,4.869995 0,0 1,NaN,NaN" stroke="#000000"
              stroke-width="1.0" stroke-opacity="1.0"/>
        <path stroke-linecap="round" fill="none" class="id_xhk id_bvb"
              d="M NaN,NaN A 4.639190,4.639190 0,0 1,NaN,NaN" stroke="#000000"
              stroke-width="1.0" stroke-opacity="1.0"/>
        <path stroke-linecap="round" fill="none" class="id_xhk id_ntq"
              d="M -57.317631,-0.294532 A 16.183541,16.183541 0,0 1,-57.484997,-0.760973"
              stroke="#000000" stroke-width="1.0" stroke-opacity="1.0"/>
        <path stroke-linecap="round" fill="none" class="id_nvd id_cmg"
              d="M NaN,NaN A 4.979125,4.979125 0,0 1,NaN,NaN" stroke="#000000"
              stroke-width="1.0" stroke-opacity="1.0"/>
        <path stroke-linecap="round" fill="none" class="id_nvd id_pzl"
              d="M 81.712402,-38.966660 A 53.359475,53.359475 0,0 1,40.285172,-61.117340"
              stroke="#000000" stroke-width="1.0" stroke-opacity="1.0"/>
        <path stroke-linecap="round" fill="none" class="id_nvd id_lhk"
              d="M 81.721329,-40.275024 A 45.661858,45.661858 0,0 1,50.837437,-61.680019"
              stroke="#000000" stroke-width="1.0" stroke-opacity="1.0"/>
        <path stroke-linecap="round" fill="none" class="id_rsh id_frs"
              d="M 34.896202,-88.439835 A 61.782250,61.782250 0,0 1,79.664986,-52.804352"
              stroke="#000000" stroke-width="1.0" stroke-opacity="1.0"/>
        <path stroke-linecap="round" fill="none" class="id_rsh id_pzl"
              d="M 32.468086,-82.934570 A 18.581677,18.581677 0,0 1,34.153801,-79.686836"
              stroke="#000000" stroke-width="1.0" stroke-opacity="1.0"/>
        <path stroke-linecap="round" fill="none" class="id_rsh id_rzs"
              d="M 34.944408,-89.045563 A 60.955109,60.955109 0,0 1,81.008133,-56.822273"
              stroke="#000000" stroke-width="1.0" stroke-opacity="1.0"/>
        <path stroke-linecap="round" fill="none" class="id_frs id_qnr"
              d="M NaN,NaN A 3.234667,3.234667 0,0 1,NaN,NaN" stroke="#000000"
              stroke-width="1.0" stroke-opacity="1.0"/>
        <path stroke-linecap="round" fill="none" class="id_frs id_lhk"
              d="M 73.053841,-44.713364 A 37.902719,37.902719 0,0 1,50.673786,-61.606552"
              stroke="#000000" stroke-width="1.0" stroke-opacity="1.0"/>
        <path stroke-linecap="round" fill="none" class="id_frs id_lsr"
              d="M 72.981369,-43.980396 A 48.284370,48.284370 0,0 1,39.354469,-67.058891"
              stroke="#000000" stroke-width="1.0" stroke-opacity="1.0"/>
        <path stroke-linecap="round" fill="none" class="id_pzl id_hfx"
              d="M 32.860912,-60.029160 A 101.346069,101.346069 0,0 1,-44.879879,10.613223"
              stroke="#000000" stroke-width="1.0" stroke-opacity="1.0"/>
        <path stroke-linecap="round" fill="none" class="id_lsr id_rzs"
              d="M 45.188301,-76.323875 A 47.763158,47.763158 0,0 1,80.003548,-56.330860"
              stroke="#000000" stroke-width="1.0" stroke-opacity="1.0"/>
        <path stroke-linecap="round" fill="none" class="id_hfx id_bvb"
              d="M NaN,NaN A 1.474835,1.474835 0,0 1,NaN,NaN" stroke="#000000"
              stroke-width="1.0" stroke-opacity="1.0"/>
        <path stroke-linecap="round" fill="none" class="id_hfx id_ntq"
              d="M -59.607178,3.286624 A 19.150968,19.150968 0,0 1,-60.154922,-1.082277"
              stroke="#000000" stroke-width="1.0" stroke-opacity="1.0"/>
        <path stroke-linecap="round" fill="none" class="id_cmg id_lhk"
              d="M 82.641602,-45.196121 A 43.737988,43.737988 0,0 1,51.789486,-62.181465"
              stroke="#000000" stroke-width="1.0" stroke-opacity="1.0"/>
        <path stroke-linecap="round" fill="none" class="id_cmg id_bvb"
              d="M 87.108101,-37.121170 A 130.782313,130.782313 0,0 1,-43.384960,14.931478"
              stroke="#000000" stroke-width="1.0" stroke-opacity="1.0"/>
        <path stroke-linecap="round" fill="none" class="id_bvb id_ntq"
              d="M -58.605740,4.325064 A 19.901683,19.901683 0,0 1,-59.620602,-0.958741"
              stroke="#000000" stroke-width="1.0" stroke-opacity="1.0"/>
    </g>
    <g id="nodes">
        <circle fill-opacity="1.0" fill="#000000" r="9.2" cx="-56.474846"
                class="id_jqt" cy="6.0322237" stroke="#000000"
                stroke-opacity="1.0" stroke-width="1.5999999"/>
        <circle fill-opacity="1.0" fill="#000000" r="9.2" cx="-54.90686"
                class="id_rhn" cy="12.342136" stroke="#000000"
                stroke-opacity="1.0" stroke-width="1.5999999"/>
        <circle fill-opacity="1.0" fill="#000000" r="9.2" cx="-51.077137"
                class="id_xhk" cy="7.5193176" stroke="#000000"
                stroke-opacity="1.0" stroke-width="1.5999999"/>
        <circle fill-opacity="1.0" fill="#000000" r="9.2" cx="91.69521"
                class="id_nvd" cy="-39.552795" stroke="#000000"
                stroke-opacity="1.0" stroke-width="1.5999999"/>
        <circle fill-opacity="1.0" fill="#000000" r="9.2" cx="24.956429"
                class="id_rsh" cy="-89.535706" stroke="#000000"
                stroke-opacity="1.0" stroke-width="1.5999999"/>
        <circle fill-opacity="1.0" fill="#000000" r="9.2" cx="82.96233"
                class="id_frs" cy="-43.363617" stroke="#000000"
                stroke-opacity="1.0" stroke-width="1.5999999"/>
        <circle fill-opacity="1.0" fill="#000000" r="9.2" cx="35.22876"
                class="id_pzl" cy="-69.74478" stroke="#000000"
                stroke-opacity="1.0" stroke-width="1.5999999"/>
        <circle fill-opacity="1.0" fill="#000000" r="9.2" cx="35.189804"
                class="id_lsr" cy="-76.150406" stroke="#000000"
                stroke-opacity="1.0" stroke-width="1.5999999"/>
        <circle fill-opacity="1.0" fill="#000000" r="9.2" cx="-54.777164"
                class="id_hfx" cy="12.042819" stroke="#000000"
                stroke-opacity="1.0" stroke-width="1.5999999"/>
        <circle fill-opacity="1.0" fill="#000000" r="9.2" cx="92.638306"
                class="id_cmg" cy="-45.452847" stroke="#000000"
                stroke-opacity="1.0" stroke-width="1.5999999"/>
        <circle fill-opacity="1.0" fill="#000000" r="9.2" cx="84.85429"
                class="id_qnr" cy="-39.97432" stroke="#000000"
                stroke-opacity="1.0" stroke-width="1.5999999"/>
        <circle fill-opacity="1.0" fill="#000000" r="9.2" cx="46.6601"
                class="id_lhk" cy="-70.76572" stroke="#000000"
                stroke-opacity="1.0" stroke-width="1.5999999"/>
        <circle fill-opacity="1.0" fill="#000000" r="9.2" cx="-53.131317"
                class="id_bvb" cy="12.693499" stroke="#000000"
                stroke-opacity="1.0" stroke-width="1.5999999"/>
        <circle fill-opacity="1.0" fill="#000000" r="9.2" cx="-57.63601"
                class="id_ntq" cy="-10.759832" stroke="#000000"
                stroke-opacity="1.0" stroke-width="1.5999999"/>
        <circle fill-opacity="1.0" fill="#000000" r="9.2" cx="84.893105"
                class="id_rzs" cy="-47.607773" stroke="#000000"
                stroke-opacity="1.0" stroke-width="1.5999999"/>
    </g>
</svg>